
<svg version="1.1" xmlns="http://www.w3.org/2000/svg" xmlns:xlink="http://www.w3.org/1999/xlink" x="0px" y="0px"
	 width="204.39px" height="257.81px" viewBox="0 0 204.39 257.81"
	 style="overflow:visible;enable-background:new 0 0 204.39 257.81;" xml:space="preserve">
<style type="text/css">
	.st0{fill:none;stroke:#000000;stroke-width:4;stroke-miterlimit:10;}
	.st1{fill:none;stroke:#000000;stroke-width:2;stroke-miterlimit:10;}
	.st2{stroke:#000000;stroke-width:4;stroke-miterlimit:10;}
</style>
<defs>
</defs>
<path class="st0" d="M48.39,145.8c-11.8-2.62-27,101,10,106c45,1.33,90,2.67,135,4c28-8-20-49.81-11-47c16,5-8.89-59.15-27-56
	C132.39,156.8,102.39,157.8,48.39,145.8z"/>
<path class="st0" d="M25.39,202.8c-13.44-8.59-11-29-10-33c2-8.02-20.61,26.94-11,46c7.22,14.32,26.01,22.7,32,18
	C41.4,229.86,38.77,211.35,25.39,202.8z"/>
<path class="st1" d="M82.46,251.8h116.55c0.71-2.74,1.42-5.54,2.15-8.42c2.62-10.36-18.36-32.79-32.42-39.32
	c-14.33-6.65-29.95,0.36-41.83,0.99c-33.64,1.78-56.47,28.49-49.15,39.31C79.46,246.88,80.83,249.35,82.46,251.8"/>
<path class="st0" d="M184.39,100.8"/>
<path class="st0" d="M49.52,26.94c-2.53,2.33-37.36,35.34-27.32,74.44c5.43,21.11,9.1,29.08,16.19,34.42
	c40.54,30.51,121.37,22.62,149.66-1.55c13.79-11.78,19.45-38.49,8.78-43.5c-18.54-8.7-4.96-57.91-44.88-79.27
	C116.77-7.35,74.47,4,49.52,26.94z"/>
<path class="st0" d="M31.27,69.11c8.31-13.85,19.59-33.73,44.08-51.08c6.28,2.09,24.08,11.85,36.18,27.77
	c3.78,4.98,18.77,29.92,6.72,50.16c-10.45,17.55-35.53,21.67-53.5,15.54c-13.6-4.64-21.41-14.55-24.52-19.04
	C32.58,82.37,29.02,72.86,31.27,69.11z"/>
<ellipse class="st2" cx="154.39" cy="90.3" rx="5" ry="11.5"/>
<path class="st2" d="M194.39,90.8c-3.06-0.7-12,3-9,7c9.61,12.33,10.06,16.36,13,15C201.88,111.19,200.21,92.13,194.39,90.8z"/>
</svg>
